<?xml version="1.0" encoding="UTF-8"?>
<svg xmlns="http://www.w3.org/2000/svg" xmlns:xlink="http://www.w3.org/1999/xlink" width="426.25" height="426.25" viewBox="-19.375 -394.375 426.25 426.25">
<defs>
<style type="text/css">
.l1d0 {stroke: #A1CAF1; fill: #A1CAF1; fill-opacity: 0.5;}
</style>
</defs>
<rect x="-19.375" y="-394.375" width="426.25" height="426.25" fill="#FFFFFF" stroke="none"/>
<g id="bend_euler_gdsfactorypc_6b36d762" transform="scale(1 -1)">
<polygon id="0000019C76E22160" class="l1d0" points="0,-12.5 0,12.5 13.85,12.5 20.75,12.55 27.65,12.55 34.5,12.65 41.4,12.7 55.1,13 61.95,13.25 68.75,13.5 75.55,13.8 82.35,14.2 89.15,14.7 95.9,15.2 102.65,15.85 109.4,16.55 116.1,17.35 122.75,18.25 129.4,19.25 136.05,20.35 142.65,21.6 149.2,22.9 155.75,24.4 162.2,26 168.65,27.7 175.05,29.55 181.35,31.6 187.65,33.7 193.85,36 200,38.45 206.5,41.25 212.9,44.25 219.25,47.4 225.5,50.75 231.65,54.25 237.65,57.95 243.6,61.8 249.45,65.8 255.15,70 260.75,74.3 266.2,78.8 271.55,83.45 276.75,88.25 281.85,93.15 286.75,98.25 291.55,103.45 296.2,108.8 300.7,114.25 305,119.85 309.2,125.55 313.2,131.4 317.05,137.35 320.75,143.35 324.25,149.5 327.6,155.75 330.75,162.1 333.75,168.5 336.55,175 339,181.15 341.3,187.35 343.4,193.65 345.45,199.95 347.3,206.35 349,212.8 350.6,219.25 352.1,225.8 353.4,232.35 354.65,238.95 355.75,245.6 356.75,252.25 357.65,258.9 358.45,265.6 359.15,272.35 359.8,279.1 360.3,285.85 360.8,292.65 361.2,299.45 361.5,306.25 361.75,313.05 362,319.9 362.3,333.6 362.35,340.5 362.45,347.35 362.45,354.25 362.5,361.15 362.5,375 387.5,375 387.5,361.1 387.45,354.15 387.45,347.2 387.35,340.2 387.3,333.2 387,319.2 386.75,312.2 386.5,305.15 386.15,298.1 385.75,291.05 385.25,284 384.7,276.95 384.05,269.9 383.3,262.85 382.45,255.75 381.5,248.7 380.45,241.65 379.25,234.6 377.95,227.55 376.5,220.55 374.95,213.55 373.25,206.55 371.35,199.6 369.35,192.7 367.15,185.8 364.85,178.95 362.3,172.15 359.6,165.45 356.55,158.3 353.25,151.25 349.8,144.3 346.15,137.4 342.3,130.65 338.25,124.05 334,117.5 329.6,111.1 325,104.8 320.25,98.65 315.3,92.65 310.2,86.8 304.95,81.05 299.5,75.5 293.95,70.05 288.2,64.8 282.35,59.7 276.35,54.75 270.2,50 263.9,45.4 257.5,41 250.95,36.75 244.35,32.7 237.6,28.85 230.7,25.2 223.75,21.75 216.7,18.45 209.55,15.4 202.85,12.7 196.05,10.15 189.2,7.85 182.3,5.65 175.4,3.65 168.45,1.75 161.45,0.05 154.45,-1.5 147.45,-2.95 140.4,-4.25 133.35,-5.45 126.3,-6.5 119.25,-7.45 112.15,-8.3 105.1,-9.05 98.05,-9.7 91,-10.25 83.95,-10.75 76.9,-11.15 69.85,-11.5 62.8,-11.75 55.8,-12 41.8,-12.3 34.8,-12.35 27.8,-12.45 20.85,-12.45 13.9,-12.5"/>
</g>
</svg>