<?xml version="1.0" encoding="utf-8" standalone="no"?>
<!DOCTYPE svg PUBLIC "-//W3C//DTD SVG 1.1//EN"
  "http://www.w3.org/Graphics/SVG/1.1/DTD/svg11.dtd">
<svg xmlns:xlink="http://www.w3.org/1999/xlink" width="266.112pt" height="266.112pt" viewBox="0 0 266.112 266.112" xmlns="http://www.w3.org/2000/svg" version="1.1">
 <metadata>
  <rdf:RDF xmlns:dc="http://purl.org/dc/elements/1.1/" xmlns:cc="http://creativecommons.org/ns#" xmlns:rdf="http://www.w3.org/1999/02/22-rdf-syntax-ns#">
   <cc:Work>
    <dc:type rdf:resource="http://purl.org/dc/dcmitype/StillImage"/>
    <dc:date>2025-04-24T09:13:43.165952</dc:date>
    <dc:format>image/svg+xml</dc:format>
    <dc:creator>
     <cc:Agent>
      <dc:title>Matplotlib v3.10.1, https://matplotlib.org/</dc:title>
     </cc:Agent>
    </dc:creator>
   </cc:Work>
  </rdf:RDF>
 </metadata>
 <defs>
  <style type="text/css">*{stroke-linejoin: round; stroke-linecap: butt}</style>
 </defs>
 <g id="figure_1">
  <g id="patch_1">
   <path d="M 0 266.112 
L 266.112 266.112 
L 266.112 0 
L 0 0 
z
" style="fill: #ffffff"/>
  </g>
  <g id="axes_1">
   <g id="patch_2">
    <path d="M 59.136 206.976 
L 206.976 206.976 
L 206.976 59.136 
L 59.136 59.136 
L 59.136 206.976 
z
" clip-path="url(#p178be1ce37)" style="fill: none; stroke: #000000; stroke-linejoin: miter"/>
   </g>
   <g id="patch_3">
    <path d="M 29.568 81.312 
L 59.136 81.312 
L 59.136 66.528 
L 29.568 66.528 
L 29.568 81.312 
z
" clip-path="url(#p178be1ce37)" style="fill: none; stroke: #000000; stroke-linejoin: miter"/>
   </g>
   <g id="patch_4">
    <path d="M 29.568 110.88 
L 59.136 110.88 
L 59.136 96.096 
L 29.568 96.096 
L 29.568 110.88 
z
" clip-path="url(#p178be1ce37)" style="fill: none; stroke: #000000; stroke-linejoin: miter"/>
   </g>
   <g id="patch_5">
    <path d="M 29.568 184.8 
L 59.136 184.8 
L 59.136 170.016 
L 29.568 170.016 
L 29.568 184.8 
z
" clip-path="url(#p178be1ce37)" style="fill: none; stroke: #000000; stroke-linejoin: miter"/>
   </g>
   <g id="patch_6">
    <path d="M 81.312 236.544 
L 96.096 236.544 
L 96.096 206.976 
L 81.312 206.976 
L 81.312 236.544 
z
" clip-path="url(#p178be1ce37)" style="fill: none; stroke: #000000; stroke-linejoin: miter"/>
   </g>
   <g id="patch_7">
    <path d="M 110.88 236.544 
L 125.664 236.544 
L 125.664 206.976 
L 110.88 206.976 
L 110.88 236.544 
z
" clip-path="url(#p178be1ce37)" style="fill: none; stroke: #000000; stroke-linejoin: miter"/>
   </g>
   <g id="patch_8">
    <path d="M 184.8 236.544 
L 199.584 236.544 
L 199.584 206.976 
L 184.8 206.976 
L 184.8 236.544 
z
" clip-path="url(#p178be1ce37)" style="fill: none; stroke: #000000; stroke-linejoin: miter"/>
   </g>
   <g id="patch_9">
    <path d="M 206.976 81.312 
L 236.544 81.312 
L 236.544 66.528 
L 206.976 66.528 
L 206.976 81.312 
z
" clip-path="url(#p178be1ce37)" style="fill: none; stroke: #000000; stroke-linejoin: miter"/>
   </g>
   <g id="patch_10">
    <path d="M 206.976 110.88 
L 236.544 110.88 
L 236.544 96.096 
L 206.976 96.096 
L 206.976 110.88 
z
" clip-path="url(#p178be1ce37)" style="fill: none; stroke: #000000; stroke-linejoin: miter"/>
   </g>
   <g id="patch_11">
    <path d="M 206.976 184.8 
L 236.544 184.8 
L 236.544 170.016 
L 206.976 170.016 
L 206.976 184.8 
z
" clip-path="url(#p178be1ce37)" style="fill: none; stroke: #000000; stroke-linejoin: miter"/>
   </g>
   <g id="patch_12">
    <path d="M 184.8 59.136 
L 199.584 59.136 
L 199.584 29.568 
L 184.8 29.568 
L 184.8 59.136 
z
" clip-path="url(#p178be1ce37)" style="fill: none; stroke: #000000; stroke-linejoin: miter"/>
   </g>
   <g id="patch_13">
    <path d="M 110.88 59.136 
L 125.664 59.136 
L 125.664 29.568 
L 110.88 29.568 
L 110.88 59.136 
z
" clip-path="url(#p178be1ce37)" style="fill: none; stroke: #000000; stroke-linejoin: miter"/>
   </g>
   <g id="patch_14">
    <path d="M 81.312 59.136 
L 96.096 59.136 
L 96.096 29.568 
L 81.312 29.568 
L 81.312 59.136 
z
" clip-path="url(#p178be1ce37)" style="fill: none; stroke: #000000; stroke-linejoin: miter"/>
   </g>
   <g id="patch_15">
    <path d="M 17.7408 75.919819 
Q 17.7408 129.36142 17.7408 181.684988 
" clip-path="url(#p178be1ce37)" style="fill: none; stroke: #000000; stroke-linecap: round"/>
    <path d="M 20.1408 176.884988 
L 17.7408 181.684988 
L 15.3408 176.884988 
" clip-path="url(#p178be1ce37)" style="fill: none; stroke: #000000; stroke-linecap: round"/>
   </g>
   <g id="patch_16">
    <path d="M 248.3712 75.919819 
Q 248.3712 129.36142 248.3712 181.684988 
" clip-path="url(#p178be1ce37)" style="fill: none; stroke: #000000; stroke-linecap: round"/>
    <path d="M 250.7712 176.884988 
L 248.3712 181.684988 
L 245.9712 176.884988 
" clip-path="url(#p178be1ce37)" style="fill: none; stroke: #000000; stroke-linecap: round"/>
   </g>
   <g id="patch_17">
    <path d="M 83.311143 17.7408 
Q 133.056726 17.7408 181.684276 17.7408 
" clip-path="url(#p178be1ce37)" style="fill: none; stroke: #000000; stroke-linecap: round"/>
    <path d="M 176.884276 15.3408 
L 181.684276 17.7408 
L 176.884276 20.1408 
" clip-path="url(#p178be1ce37)" style="fill: none; stroke: #000000; stroke-linecap: round"/>
   </g>
   <g id="patch_18">
    <path d="M 83.311143 248.3712 
Q 133.056726 248.3712 181.684276 248.3712 
" clip-path="url(#p178be1ce37)" style="fill: none; stroke: #000000; stroke-linecap: round"/>
    <path d="M 176.884276 245.9712 
L 181.684276 248.3712 
L 176.884276 250.7712 
" clip-path="url(#p178be1ce37)" style="fill: none; stroke: #000000; stroke-linecap: round"/>
   </g>
   <g id="text_1">
    <!-- 1 -->
    <g transform="translate(8.8704 133.056) scale(0.1 -0.1)">
     <defs>
      <path id="DejaVuSans-31" d="M 794 531 
L 1825 531 
L 1825 4091 
L 703 3866 
L 703 4441 
L 1819 4666 
L 2450 4666 
L 2450 531 
L 3481 531 
L 3481 0 
L 794 0 
L 794 531 
z
" transform="scale(0.015625)"/>
     </defs>
     <use xlink:href="#DejaVuSans-31"/>
    </g>
   </g>
   <g id="text_2">
    <!-- 2 -->
    <g transform="translate(249.8496 133.056) scale(0.1 -0.1)">
     <defs>
      <path id="DejaVuSans-32" d="M 1228 531 
L 3431 531 
L 3431 0 
L 469 0 
L 469 531 
Q 828 903 1448 1529 
Q 2069 2156 2228 2338 
Q 2531 2678 2651 2914 
Q 2772 3150 2772 3378 
Q 2772 3750 2511 3984 
Q 2250 4219 1831 4219 
Q 1534 4219 1204 4116 
Q 875 4013 500 3803 
L 500 4441 
Q 881 4594 1212 4672 
Q 1544 4750 1819 4750 
Q 2544 4750 2975 4387 
Q 3406 4025 3406 3419 
Q 3406 3131 3298 2873 
Q 3191 2616 2906 2266 
Q 2828 2175 2409 1742 
Q 1991 1309 1228 531 
z
" transform="scale(0.015625)"/>
     </defs>
     <use xlink:href="#DejaVuSans-32"/>
    </g>
   </g>
   <g id="text_3">
    <!-- 3 -->
    <g transform="translate(133.056 16.2624) scale(0.1 -0.1)">
     <defs>
      <path id="DejaVuSans-33" d="M 2597 2516 
Q 3050 2419 3304 2112 
Q 3559 1806 3559 1356 
Q 3559 666 3084 287 
Q 2609 -91 1734 -91 
Q 1441 -91 1130 -33 
Q 819 25 488 141 
L 488 750 
Q 750 597 1062 519 
Q 1375 441 1716 441 
Q 2309 441 2620 675 
Q 2931 909 2931 1356 
Q 2931 1769 2642 2001 
Q 2353 2234 1838 2234 
L 1294 2234 
L 1294 2753 
L 1863 2753 
Q 2328 2753 2575 2939 
Q 2822 3125 2822 3475 
Q 2822 3834 2567 4026 
Q 2313 4219 1838 4219 
Q 1578 4219 1281 4162 
Q 984 4106 628 3988 
L 628 4550 
Q 988 4650 1302 4700 
Q 1616 4750 1894 4750 
Q 2613 4750 3031 4423 
Q 3450 4097 3450 3541 
Q 3450 3153 3228 2886 
Q 3006 2619 2597 2516 
z
" transform="scale(0.015625)"/>
     </defs>
     <use xlink:href="#DejaVuSans-33"/>
    </g>
   </g>
   <g id="text_4">
    <!-- 4 -->
    <g transform="translate(133.056 259.4592) scale(0.1 -0.1)">
     <defs>
      <path id="DejaVuSans-34" d="M 2419 4116 
L 825 1625 
L 2419 1625 
L 2419 4116 
z
M 2253 4666 
L 3047 4666 
L 3047 1625 
L 3713 1625 
L 3713 1100 
L 3047 1100 
L 3047 0 
L 2419 0 
L 2419 1100 
L 313 1100 
L 313 1709 
L 2253 4666 
z
" transform="scale(0.015625)"/>
     </defs>
     <use xlink:href="#DejaVuSans-34"/>
    </g>
   </g>
   <g id="text_5">
    <!-- 1 -->
    <g style="fill: #8b0000" transform="translate(41.3952 78.20736) scale(0.1 -0.1)">
     <use xlink:href="#DejaVuSans-31"/>
    </g>
   </g>
   <g id="text_6">
    <!-- 2 -->
    <g style="fill: #8b0000" transform="translate(41.3952 107.77536) scale(0.1 -0.1)">
     <use xlink:href="#DejaVuSans-32"/>
    </g>
   </g>
   <g id="text_7">
    <!-- . -->
    <g style="fill: #8b0000" transform="translate(41.3952 122.55936) scale(0.1 -0.1)">
     <defs>
      <path id="DejaVuSans-2e" d="M 684 794 
L 1344 794 
L 1344 0 
L 684 0 
L 684 794 
z
" transform="scale(0.015625)"/>
     </defs>
     <use xlink:href="#DejaVuSans-2e"/>
    </g>
   </g>
   <g id="text_8">
    <!-- . -->
    <g style="fill: #8b0000" transform="translate(41.3952 138.9696) scale(0.1 -0.1)">
     <use xlink:href="#DejaVuSans-2e"/>
    </g>
   </g>
   <g id="text_9">
    <!-- . -->
    <g style="fill: #8b0000" transform="translate(41.3952 156.7104) scale(0.1 -0.1)">
     <use xlink:href="#DejaVuSans-2e"/>
    </g>
   </g>
   <g id="text_10">
    <!-- m -->
    <g style="fill: #8b0000" transform="translate(38.4384 181.104) scale(0.1 -0.1)">
     <defs>
      <path id="DejaVuSans-6d" d="M 3328 2828 
Q 3544 3216 3844 3400 
Q 4144 3584 4550 3584 
Q 5097 3584 5394 3201 
Q 5691 2819 5691 2113 
L 5691 0 
L 5113 0 
L 5113 2094 
Q 5113 2597 4934 2840 
Q 4756 3084 4391 3084 
Q 3944 3084 3684 2787 
Q 3425 2491 3425 1978 
L 3425 0 
L 2847 0 
L 2847 2094 
Q 2847 2600 2669 2842 
Q 2491 3084 2119 3084 
Q 1678 3084 1418 2786 
Q 1159 2488 1159 1978 
L 1159 0 
L 581 0 
L 581 3500 
L 1159 3500 
L 1159 2956 
Q 1356 3278 1631 3431 
Q 1906 3584 2284 3584 
Q 2666 3584 2933 3390 
Q 3200 3197 3328 2828 
z
" transform="scale(0.015625)"/>
     </defs>
     <use xlink:href="#DejaVuSans-6d"/>
    </g>
   </g>
   <g id="text_11">
    <!-- m+1 -->
    <g style="fill: #8b0000" transform="translate(209.1936 78.20736) scale(0.1 -0.1)">
     <defs>
      <path id="DejaVuSans-2b" d="M 2944 4013 
L 2944 2272 
L 4684 2272 
L 4684 1741 
L 2944 1741 
L 2944 0 
L 2419 0 
L 2419 1741 
L 678 1741 
L 678 2272 
L 2419 2272 
L 2419 4013 
L 2944 4013 
z
" transform="scale(0.015625)"/>
     </defs>
     <use xlink:href="#DejaVuSans-6d"/>
     <use xlink:href="#DejaVuSans-2b" transform="translate(97.412109 0)"/>
     <use xlink:href="#DejaVuSans-31" transform="translate(181.201172 0)"/>
    </g>
   </g>
   <g id="text_12">
    <!-- m+2 -->
    <g style="fill: #8b0000" transform="translate(209.1936 107.77536) scale(0.1 -0.1)">
     <use xlink:href="#DejaVuSans-6d"/>
     <use xlink:href="#DejaVuSans-2b" transform="translate(97.412109 0)"/>
     <use xlink:href="#DejaVuSans-32" transform="translate(181.201172 0)"/>
    </g>
   </g>
   <g id="text_13">
    <!-- . -->
    <g style="fill: #8b0000" transform="translate(218.064 122.55936) scale(0.1 -0.1)">
     <use xlink:href="#DejaVuSans-2e"/>
    </g>
   </g>
   <g id="text_14">
    <!-- . -->
    <g style="fill: #8b0000" transform="translate(218.064 138.9696) scale(0.1 -0.1)">
     <use xlink:href="#DejaVuSans-2e"/>
    </g>
   </g>
   <g id="text_15">
    <!-- . -->
    <g style="fill: #8b0000" transform="translate(218.064 156.7104) scale(0.1 -0.1)">
     <use xlink:href="#DejaVuSans-2e"/>
    </g>
   </g>
   <g id="text_16">
    <!-- n -->
    <g style="fill: #8b0000" transform="translate(215.8464 181.104) scale(0.1 -0.1)">
     <defs>
      <path id="DejaVuSans-6e" d="M 3513 2113 
L 3513 0 
L 2938 0 
L 2938 2094 
Q 2938 2591 2744 2837 
Q 2550 3084 2163 3084 
Q 1697 3084 1428 2787 
Q 1159 2491 1159 1978 
L 1159 0 
L 581 0 
L 581 3500 
L 1159 3500 
L 1159 2956 
Q 1366 3272 1645 3428 
Q 1925 3584 2291 3584 
Q 2894 3584 3203 3211 
Q 3513 2838 3513 2113 
z
" transform="scale(0.015625)"/>
     </defs>
     <use xlink:href="#DejaVuSans-6e"/>
    </g>
   </g>
   <g id="text_17">
    <!-- n+1 -->
    <g style="fill: #8b0000" transform="translate(90.388837 53.971527) rotate(-90) scale(0.1 -0.1)">
     <use xlink:href="#DejaVuSans-6e"/>
     <use xlink:href="#DejaVuSans-2b" transform="translate(63.378906 0)"/>
     <use xlink:href="#DejaVuSans-31" transform="translate(147.167969 0)"/>
    </g>
   </g>
   <g id="text_18">
    <!-- n+2 -->
    <g style="fill: #8b0000" transform="translate(119.956837 53.971527) rotate(-90) scale(0.1 -0.1)">
     <use xlink:href="#DejaVuSans-6e"/>
     <use xlink:href="#DejaVuSans-2b" transform="translate(63.378906 0)"/>
     <use xlink:href="#DejaVuSans-32" transform="translate(147.167969 0)"/>
    </g>
   </g>
   <g id="text_19">
    <!-- . -->
    <g style="fill: #8b0000" transform="translate(134.740837 41.848647) rotate(-90) scale(0.1 -0.1)">
     <use xlink:href="#DejaVuSans-2e"/>
    </g>
   </g>
   <g id="text_20">
    <!-- . -->
    <g style="fill: #8b0000" transform="translate(152.481637 41.848647) rotate(-90) scale(0.1 -0.1)">
     <use xlink:href="#DejaVuSans-2e"/>
    </g>
   </g>
   <g id="text_21">
    <!-- . -->
    <g style="fill: #8b0000" transform="translate(170.222437 41.848647) rotate(-90) scale(0.1 -0.1)">
     <use xlink:href="#DejaVuSans-2e"/>
    </g>
   </g>
   <g id="text_22">
    <!-- o -->
    <g style="fill: #8b0000" transform="translate(193.137637 46.431687) rotate(-90) scale(0.1 -0.1)">
     <defs>
      <path id="DejaVuSans-6f" d="M 1959 3097 
Q 1497 3097 1228 2736 
Q 959 2375 959 1747 
Q 959 1119 1226 758 
Q 1494 397 1959 397 
Q 2419 397 2687 759 
Q 2956 1122 2956 1747 
Q 2956 2369 2687 2733 
Q 2419 3097 1959 3097 
z
M 1959 3584 
Q 2709 3584 3137 3096 
Q 3566 2609 3566 1747 
Q 3566 888 3137 398 
Q 2709 -91 1959 -91 
Q 1206 -91 779 398 
Q 353 888 353 1747 
Q 353 2609 779 3096 
Q 1206 3584 1959 3584 
z
" transform="scale(0.015625)"/>
     </defs>
     <use xlink:href="#DejaVuSans-6f"/>
    </g>
   </g>
   <g id="text_23">
    <!-- o+1 -->
    <g style="fill: #8b0000" transform="translate(90.388837 234.188487) rotate(-90) scale(0.1 -0.1)">
     <use xlink:href="#DejaVuSans-6f"/>
     <use xlink:href="#DejaVuSans-2b" transform="translate(61.181641 0)"/>
     <use xlink:href="#DejaVuSans-31" transform="translate(144.970703 0)"/>
    </g>
   </g>
   <g id="text_24">
    <!-- o+2 -->
    <g style="fill: #8b0000" transform="translate(119.956837 234.188487) rotate(-90) scale(0.1 -0.1)">
     <use xlink:href="#DejaVuSans-6f"/>
     <use xlink:href="#DejaVuSans-2b" transform="translate(61.181641 0)"/>
     <use xlink:href="#DejaVuSans-32" transform="translate(144.970703 0)"/>
    </g>
   </g>
   <g id="text_25">
    <!-- . -->
    <g style="fill: #8b0000" transform="translate(134.740837 222.509127) rotate(-90) scale(0.1 -0.1)">
     <use xlink:href="#DejaVuSans-2e"/>
    </g>
   </g>
   <g id="text_26">
    <!-- . -->
    <g style="fill: #8b0000" transform="translate(152.481637 222.509127) rotate(-90) scale(0.1 -0.1)">
     <use xlink:href="#DejaVuSans-2e"/>
    </g>
   </g>
   <g id="text_27">
    <!-- . -->
    <g style="fill: #8b0000" transform="translate(170.222437 222.509127) rotate(-90) scale(0.1 -0.1)">
     <use xlink:href="#DejaVuSans-2e"/>
    </g>
   </g>
   <g id="text_28">
    <!-- p -->
    <g style="fill: #8b0000" transform="translate(193.137637 223.839687) rotate(-90) scale(0.1 -0.1)">
     <defs>
      <path id="DejaVuSans-70" d="M 1159 525 
L 1159 -1331 
L 581 -1331 
L 581 3500 
L 1159 3500 
L 1159 2969 
Q 1341 3281 1617 3432 
Q 1894 3584 2278 3584 
Q 2916 3584 3314 3078 
Q 3713 2572 3713 1747 
Q 3713 922 3314 415 
Q 2916 -91 2278 -91 
Q 1894 -91 1617 61 
Q 1341 213 1159 525 
z
M 3116 1747 
Q 3116 2381 2855 2742 
Q 2594 3103 2138 3103 
Q 1681 3103 1420 2742 
Q 1159 2381 1159 1747 
Q 1159 1113 1420 752 
Q 1681 391 2138 391 
Q 2594 391 2855 752 
Q 3116 1113 3116 1747 
z
" transform="scale(0.015625)"/>
     </defs>
     <use xlink:href="#DejaVuSans-70"/>
    </g>
   </g>
   <g id="text_29">
    <!-- Device -->
    <g transform="translate(100.5312 138.9696) scale(0.2 -0.2)">
     <defs>
      <path id="DejaVuSans-44" d="M 1259 4147 
L 1259 519 
L 2022 519 
Q 2988 519 3436 956 
Q 3884 1394 3884 2338 
Q 3884 3275 3436 3711 
Q 2988 4147 2022 4147 
L 1259 4147 
z
M 628 4666 
L 1925 4666 
Q 3281 4666 3915 4102 
Q 4550 3538 4550 2338 
Q 4550 1131 3912 565 
Q 3275 0 1925 0 
L 628 0 
L 628 4666 
z
" transform="scale(0.015625)"/>
      <path id="DejaVuSans-65" d="M 3597 1894 
L 3597 1613 
L 953 1613 
Q 991 1019 1311 708 
Q 1631 397 2203 397 
Q 2534 397 2845 478 
Q 3156 559 3463 722 
L 3463 178 
Q 3153 47 2828 -22 
Q 2503 -91 2169 -91 
Q 1331 -91 842 396 
Q 353 884 353 1716 
Q 353 2575 817 3079 
Q 1281 3584 2069 3584 
Q 2775 3584 3186 3129 
Q 3597 2675 3597 1894 
z
M 3022 2063 
Q 3016 2534 2758 2815 
Q 2500 3097 2075 3097 
Q 1594 3097 1305 2825 
Q 1016 2553 972 2059 
L 3022 2063 
z
" transform="scale(0.015625)"/>
      <path id="DejaVuSans-76" d="M 191 3500 
L 800 3500 
L 1894 563 
L 2988 3500 
L 3597 3500 
L 2284 0 
L 1503 0 
L 191 3500 
z
" transform="scale(0.015625)"/>
      <path id="DejaVuSans-69" d="M 603 3500 
L 1178 3500 
L 1178 0 
L 603 0 
L 603 3500 
z
M 603 4863 
L 1178 4863 
L 1178 4134 
L 603 4134 
L 603 4863 
z
" transform="scale(0.015625)"/>
      <path id="DejaVuSans-63" d="M 3122 3366 
L 3122 2828 
Q 2878 2963 2633 3030 
Q 2388 3097 2138 3097 
Q 1578 3097 1268 2742 
Q 959 2388 959 1747 
Q 959 1106 1268 751 
Q 1578 397 2138 397 
Q 2388 397 2633 464 
Q 2878 531 3122 666 
L 3122 134 
Q 2881 22 2623 -34 
Q 2366 -91 2075 -91 
Q 1284 -91 818 406 
Q 353 903 353 1747 
Q 353 2603 823 3093 
Q 1294 3584 2113 3584 
Q 2378 3584 2631 3529 
Q 2884 3475 3122 3366 
z
" transform="scale(0.015625)"/>
     </defs>
     <use xlink:href="#DejaVuSans-44"/>
     <use xlink:href="#DejaVuSans-65" transform="translate(77.001953 0)"/>
     <use xlink:href="#DejaVuSans-76" transform="translate(138.525391 0)"/>
     <use xlink:href="#DejaVuSans-69" transform="translate(197.705078 0)"/>
     <use xlink:href="#DejaVuSans-63" transform="translate(225.488281 0)"/>
     <use xlink:href="#DejaVuSans-65" transform="translate(280.46875 0)"/>
    </g>
   </g>
  </g>
 </g>
 <defs>
  <clipPath id="p178be1ce37">
   <rect x="0" y="-0" width="266.112" height="266.112"/>
  </clipPath>
 </defs>
</svg>
