<?xml version="1.0" encoding="UTF-8"?>
<svg xmlns="http://www.w3.org/2000/svg" xmlns:xlink="http://www.w3.org/1999/xlink" width="440" height="265" viewBox="-20 -232.5 440 265">
<defs>
<style type="text/css">
.l1d0 {stroke: #A1CAF1; fill: #A1CAF1; fill-opacity: 0.5;}
</style>
</defs>
<rect x="-20" y="-232.5" width="440" height="265" fill="#FFFFFF" stroke="none"/>
<g id="TOP" transform="scale(1 -1)">
<polygon id="000001EC4E7101F0" class="l1d0" points="0,-12.5 0,12.5 5.8,12.55 11.5,12.75 17.05,13.05 22.45,13.45 27.75,13.95 32.95,14.55 38.05,15.25 43.05,16.1 47.9,17 52.65,18 57.35,19.1 61.9,20.3 66.4,21.6 70.8,22.95 75.1,24.4 79.3,25.95 83.45,27.55 87.5,29.25 91.5,31 95.45,32.85 99.3,34.75 103.1,36.75 106.85,38.8 110.5,40.9 114.1,43.05 117.7,45.3 121.2,47.6 124.7,49.95 128.1,52.35 131.5,54.8 134.85,57.3 141.45,62.5 144.65,65.15 147.9,67.85 151.1,70.6 154.25,73.35 157.4,76.15 160.5,79 166.7,84.8 169.75,87.75 172.85,90.7 182,99.7 191.15,108.85 194.25,111.9 200.4,118.05 203.5,121.1 206.6,124.2 212.9,130.3 216.1,133.35 219.35,136.35 222.6,139.4 225.85,142.4 232.55,148.3 235.95,151.2 239.4,154.1 242.85,156.95 246.4,159.8 250,162.55 253.65,165.3 257.35,168 261.15,170.65 264.95,173.25 268.85,175.75 272.8,178.25 276.85,180.65 280.95,183.05 285.15,185.3 289.4,187.55 293.7,189.7 298.15,191.75 302.65,193.75 307.2,195.65 311.9,197.45 316.65,199.2 321.5,200.8 326.45,202.35 331.5,203.8 336.65,205.15 341.85,206.4 347.2,207.5 352.65,208.55 358.15,209.45 363.8,210.25 369.55,210.9 375.4,211.5 381.4,211.95 387.5,212.25 393.7,212.45 400,212.5 400,187.5 394.2,187.45 388.5,187.25 382.95,186.95 377.55,186.55 372.25,186.05 367.05,185.45 361.95,184.75 356.95,183.9 352.1,183 347.35,182 342.65,180.9 338.1,179.7 333.6,178.4 329.2,177.05 324.9,175.6 320.7,174.05 316.55,172.45 312.5,170.75 308.5,169 304.55,167.15 300.7,165.25 296.9,163.25 293.15,161.2 289.5,159.1 285.9,156.95 282.3,154.7 278.8,152.4 275.3,150.05 271.9,147.65 268.5,145.2 265.15,142.7 258.55,137.5 255.35,134.85 252.1,132.15 248.9,129.4 245.75,126.65 242.6,123.85 239.5,121 233.3,115.2 230.25,112.25 227.15,109.3 218,100.3 208.85,91.15 205.75,88.1 199.6,81.95 196.5,78.9 193.4,75.8 187.1,69.7 183.9,66.65 180.65,63.65 177.4,60.6 174.15,57.6 167.45,51.7 164.05,48.8 160.6,45.9 157.15,43.05 153.6,40.2 150,37.45 146.35,34.7 142.65,32 138.85,29.35 135.05,26.75 131.15,24.25 127.2,21.75 123.15,19.35 119.05,16.95 114.85,14.7 110.6,12.45 106.3,10.3 101.85,8.25 97.35,6.25 92.8,4.35 88.1,2.55 83.35,0.8 78.5,-0.8 73.55,-2.35 68.5,-3.8 63.35,-5.15 58.15,-6.4 52.8,-7.5 47.35,-8.55 41.85,-9.45 36.2,-10.25 30.45,-10.9 24.6,-11.5 18.6,-11.95 12.5,-12.25 6.3,-12.45"/>
</g>
</svg>