<?xml version="1.0" encoding="UTF-8"?>
<svg xmlns="http://www.w3.org/2000/svg" xmlns:xlink="http://www.w3.org/1999/xlink" width="742.5" height="307.5" viewBox="-46.25 -153.75 742.5 307.5">
<defs>
<style type="text/css">
.l1d0 {stroke: #A1CAF1; fill: #A1CAF1; fill-opacity: 0.5;}
</style>
</defs>
<rect x="-46.25" y="-153.75" width="742.5" height="307.5" fill="#FFFFFF" stroke="none"/>
<g id="mmi1x2_with_sbend_WSTru_2bb6e1d9" transform="scale(1 -1)">
<polygon id="0000026D16848B60" class="l1d0" points="662.5,-120 654.1,-119.95 645.85,-119.9 637.75,-119.75 629.8,-119.55 622.05,-119.3 614.45,-119 606.95,-118.65 599.65,-118.3 592.45,-117.85 585.4,-117.35 578.5,-116.8 571.7,-116.25 565.1,-115.6 558.55,-114.95 552.15,-114.25 545.9,-113.5 539.7,-112.7 533.65,-111.9 527.7,-111.05 521.85,-110.15 516.15,-109.2 510.5,-108.25 504.95,-107.25 499.5,-106.25 494.15,-105.15 488.85,-104.1 483.65,-103 478.55,-101.85 473.5,-100.7 468.55,-99.5 463.65,-98.3 458.8,-97.1 454.05,-95.85 449.35,-94.6 444.7,-93.3 440.1,-92 435.55,-90.7 431.05,-89.4 426.55,-88.05 417.75,-85.35 413.4,-84 409.1,-82.65 404.8,-81.25 400.55,-79.9 396.3,-78.5 392.05,-77.15 387.85,-75.75 383.6,-74.4 379.4,-73 375.2,-71.65 371,-70.25 366.8,-68.9 362.55,-67.55 358.35,-66.2 354.1,-64.85 349.8,-63.5 345.55,-62.2 341.2,-60.9 336.9,-59.6 332.5,-58.3 328.1,-57.05 319.1,-54.55 314.55,-53.35 309.95,-52.15 305.3,-50.95 300.6,-49.8 295.8,-48.65 290.95,-47.55 286,-46.45 281,-45.4 275.95,-44.35 270.8,-43.35 265.55,-42.35 260.2,-41.4 254.75,-40.45 249.25,-39.55 243.6,-38.7 237.85,-37.85 232.05,-37.1 226.05,-36.3 220,-35.6 213.8,-34.9 207.5,-34.25 201.05,-33.65 194.45,-33.1 187.75,-32.6 180.9,-32.1 173.95,-31.7 166.8,-31.3 159.5,-30.95 152.1,-30.65 144.5,-30.45 136.75,-30.25 128.85,-30.1 120.75,-30.05 112.5,-30 100,-30 99,-29.75 98,-29.55 96.95,-29.45 95.95,-29.45 94.95,-29.5 93.95,-29.6 92.95,-29.75 91.9,-29.95 89.9,-30.45 88.9,-30.8 87.9,-31.1 86.85,-31.45 85.85,-31.85 83.85,-32.55 82.85,-32.95 81.8,-33.3 80.8,-33.6 79.8,-33.95 78.8,-34.25 77.8,-34.5 76.75,-34.7 75.75,-34.9 74.75,-35.05 72.75,-35.15 71.7,-35.2 70.7,-35.15 69.7,-35.15 67.7,-35.05 66.65,-35 65.65,-34.95 64.65,-34.95 63.65,-34.9 61.6,-34.9 60.6,-34.95 59.6,-34.95 57.6,-35.05 56.55,-35.05 54.55,-35.15 52.55,-35.15 51.5,-35.1 50.5,-35.05 49.5,-34.95 48.5,-34.8 47.45,-34.55 46.45,-34.25 45.45,-33.9 44.45,-33.4 43.45,-32.8 42.4,-32.1 41.4,-31.3 40.4,-30.3 39.4,-29.25 38.4,-28.1 37.35,-26.95 36.35,-25.75 35.35,-24.6 34.35,-23.5 33.35,-22.5 32.3,-21.6 31.3,-20.8 30.3,-20.1 29.3,-19.45 28.3,-18.9 27.25,-18.4 25.25,-17.6 23.25,-16.9 22.2,-16.6 20.2,-16 19.2,-15.75 18.2,-15.45 17.15,-15.15 16.15,-14.85 15.15,-14.5 14.15,-14.2 13.15,-13.85 12.1,-13.55 10.1,-12.95 8.1,-12.45 7.05,-12.25 6.05,-12.1 5.05,-12 4.05,-11.95 3.05,-12 2,-12.05 1,-12.25 0,-12.5 -12.5,-12.5 -12.5,12.5 0,12.5 1,12.25 2,12.05 3.05,12 4.05,11.95 5.05,12 6.05,12.1 7.05,12.25 8.1,12.45 10.1,12.95 12.1,13.55 13.15,13.85 14.15,14.2 15.15,14.5 16.15,14.85 17.15,15.15 18.2,15.45 19.2,15.75 20.2,16 22.2,16.6 23.25,16.9 25.25,17.6 27.25,18.4 28.3,18.9 29.3,19.45 30.3,20.1 31.3,20.8 32.3,21.6 33.35,22.5 34.35,23.5 35.35,24.6 36.35,25.75 37.35,26.95 38.4,28.1 39.4,29.25 40.4,30.3 41.4,31.3 42.4,32.1 43.45,32.8 44.45,33.4 45.45,33.9 46.45,34.25 47.45,34.55 48.5,34.8 49.5,34.95 50.5,35.05 51.5,35.1 52.55,35.15 54.55,35.15 56.55,35.05 57.6,35.05 59.6,34.95 60.6,34.95 61.6,34.9 63.65,34.9 64.65,34.95 65.65,34.95 66.65,35 67.7,35.05 69.7,35.15 70.7,35.15 71.7,35.2 72.75,35.15 74.75,35.05 75.75,34.9 76.75,34.7 77.8,34.5 78.8,34.25 79.8,33.95 80.8,33.6 81.8,33.3 82.85,32.95 83.85,32.55 85.85,31.85 86.85,31.45 87.9,31.1 88.9,30.8 89.9,30.45 91.9,29.95 92.95,29.75 93.95,29.6 94.95,29.5 95.95,29.45 96.95,29.45 98,29.55 99,29.75 100,30 112.5,30 120.75,30.05 128.85,30.1 136.75,30.25 144.5,30.45 152.1,30.65 159.5,30.95 166.8,31.3 173.95,31.7 180.9,32.1 187.75,32.6 194.45,33.1 201.05,33.65 207.5,34.25 213.8,34.9 220,35.6 226.05,36.3 232.05,37.1 237.85,37.85 243.6,38.7 249.25,39.55 254.75,40.45 260.2,41.4 265.55,42.35 270.8,43.35 275.95,44.35 281,45.4 286,46.45 290.95,47.55 295.8,48.65 300.6,49.8 305.3,50.95 309.95,52.15 314.55,53.35 319.1,54.55 328.1,57.05 332.5,58.3 336.9,59.6 341.2,60.9 345.55,62.2 349.8,63.5 354.1,64.85 358.35,66.2 362.55,67.55 366.8,68.9 371,70.25 375.2,71.65 379.4,73 383.6,74.4 387.85,75.75 392.05,77.15 396.3,78.5 400.55,79.9 404.8,81.25 409.1,82.65 413.4,84 417.75,85.35 426.55,88.05 431.05,89.4 435.55,90.7 440.1,92 444.7,93.3 449.35,94.6 454.05,95.85 458.8,97.1 463.65,98.3 468.55,99.5 473.5,100.7 478.55,101.85 483.65,103 488.85,104.1 494.15,105.15 499.5,106.25 504.95,107.25 510.5,108.25 516.15,109.2 521.85,110.15 527.7,111.05 533.65,111.9 539.7,112.7 545.9,113.5 552.15,114.25 558.55,114.95 565.1,115.6 571.7,116.25 578.5,116.8 585.4,117.35 592.45,117.85 599.65,118.3 606.95,118.65 614.45,119 622.05,119.3 629.8,119.55 637.75,119.75 645.85,119.9 654.1,119.95 662.5,120 662.5,95 654.25,94.95 646.15,94.9 638.25,94.75 630.5,94.55 622.9,94.35 615.5,94.05 608.2,93.7 601.05,93.3 594.1,92.9 587.25,92.4 580.55,91.9 573.95,91.35 567.5,90.75 561.2,90.1 555,89.4 548.95,88.7 542.95,87.9 537.15,87.15 531.4,86.3 525.75,85.45 520.25,84.55 514.8,83.6 509.45,82.65 504.2,81.65 499.05,80.65 494,79.6 489,78.55 484.05,77.45 479.2,76.35 474.4,75.2 469.7,74.05 465.05,72.85 460.45,71.65 455.9,70.45 446.9,67.95 442.5,66.7 438.1,65.4 433.8,64.1 429.45,62.8 425.2,61.5 420.9,60.15 416.65,58.8 412.45,57.45 408.2,56.1 404,54.75 399.8,53.35 395.6,52 391.4,50.6 387.15,49.25 382.95,47.85 378.7,46.5 374.45,45.1 370.2,43.75 365.9,42.35 361.6,41 357.25,39.65 348.45,36.95 343.95,35.6 339.45,34.3 334.9,33 330.3,31.7 325.65,30.4 320.95,29.15 316.2,27.9 311.35,26.7 306.45,25.5 301.5,24.3 296.45,23.15 291.35,22 286.15,20.9 280.85,19.85 275.5,18.75 270.05,17.75 264.5,16.75 258.85,15.8 253.15,14.85 247.3,13.95 241.35,13.1 235.3,12.3 229.1,11.5 222.85,10.75 216.45,10.05 209.9,9.4 203.3,8.75 196.5,8.2 189.6,7.65 182.55,7.15 175.35,6.7 168.05,6.35 160.55,6 152.95,5.7 145.2,5.45 137.25,5.25 129.15,5.1 120.9,5.05 112.5,5 100,5 100,-5 112.5,-5 120.9,-5.05 129.15,-5.1 137.25,-5.25 145.2,-5.45 152.95,-5.7 160.55,-6 168.05,-6.35 175.35,-6.7 182.55,-7.15 189.6,-7.65 196.5,-8.2 203.3,-8.75 209.9,-9.4 216.45,-10.05 222.85,-10.75 229.1,-11.5 235.3,-12.3 241.35,-13.1 247.3,-13.95 253.15,-14.85 258.85,-15.8 264.5,-16.75 270.05,-17.75 275.5,-18.75 280.85,-19.85 286.15,-20.9 291.35,-22 296.45,-23.15 301.5,-24.3 306.45,-25.5 311.35,-26.7 316.2,-27.9 320.95,-29.15 325.65,-30.4 330.3,-31.7 334.9,-33 339.45,-34.3 343.95,-35.6 348.45,-36.95 357.25,-39.65 361.6,-41 365.9,-42.35 370.2,-43.75 374.45,-45.1 378.7,-46.5 382.95,-47.85 387.15,-49.25 391.4,-50.6 395.6,-52 399.8,-53.35 404,-54.75 408.2,-56.1 412.45,-57.45 416.65,-58.8 420.9,-60.15 425.2,-61.5 429.45,-62.8 433.8,-64.1 438.1,-65.4 442.5,-66.7 446.9,-67.95 455.9,-70.45 460.45,-71.65 465.05,-72.85 469.7,-74.05 474.4,-75.2 479.2,-76.35 484.05,-77.45 489,-78.55 494,-79.6 499.05,-80.65 504.2,-81.65 509.45,-82.65 514.8,-83.6 520.25,-84.55 525.75,-85.45 531.4,-86.3 537.15,-87.15 542.95,-87.9 548.95,-88.7 555,-89.4 561.2,-90.1 567.5,-90.75 573.95,-91.35 580.55,-91.9 587.25,-92.4 594.1,-92.9 601.05,-93.3 608.2,-93.7 615.5,-94.05 622.9,-94.35 630.5,-94.55 638.25,-94.75 646.15,-94.9 654.25,-94.95 662.5,-95"/>
</g>
</svg>