<?xml version="1.0" encoding="UTF-8"?>
<svg xmlns="http://www.w3.org/2000/svg" xmlns:xlink="http://www.w3.org/1999/xlink" width="440" height="440" viewBox="-220 -220 440 440">
<defs>
<style type="text/css">
.l1d0 {stroke: #A1CAF1; fill: #A1CAF1; fill-opacity: 0.5;}
.l2d0 {stroke: #BE0032; fill: #BE0032; fill-opacity: 0.5;}
</style>
</defs>
<rect x="-220" y="-220" width="440" height="440" fill="#FFFFFF" stroke="none"/>
<g id="crossing" transform="scale(1 -1)">
<polygon id="000001EFFF68A0D0" class="l1d0" points="-200,12.5 -30,30 30,30 200,12.5 200,-12.5 30,-30 -30,-30 -200,-12.5"/>
<polygon id="000001EFFF68A300" class="l2d0" points="150,0 148.95,6.5 145.9,12.75 141.2,18.6 135.2,23.85 128.35,28.45 121.1,32.45 113.75,35.85 106.45,38.75 99.4,41.2 92.7,43.25 86.4,44.95 80.4,46.45 74.8,47.65 69.6,48.7 64.65,49.65 60.05,50.4 55.75,51.05 51.65,51.65 47.75,52.15 44.1,52.55 40.65,52.95 37.3,53.25 34.1,53.55 31.05,53.8 28.1,54 25.3,54.2 22.5,54.4 19.85,54.5 17.25,54.65 14.65,54.75 12.15,54.8 9.7,54.9 7.25,54.95 4.8,54.95 2.4,55 0,55 -2.4,55 -4.8,54.95 -7.25,54.95 -9.7,54.9 -12.15,54.8 -14.65,54.75 -17.25,54.65 -19.85,54.5 -22.5,54.4 -25.3,54.2 -28.1,54 -31.05,53.8 -34.1,53.55 -37.3,53.25 -40.65,52.95 -44.1,52.55 -47.75,52.15 -51.65,51.65 -55.75,51.05 -60.05,50.4 -64.65,49.65 -69.6,48.7 -74.8,47.65 -80.4,46.45 -86.4,44.95 -92.7,43.25 -99.4,41.2 -106.45,38.75 -113.75,35.85 -121.1,32.45 -128.35,28.45 -135.2,23.85 -141.2,18.6 -145.9,12.75 -148.95,6.5 -150,0 -148.95,-6.5 -145.9,-12.75 -141.2,-18.6 -135.2,-23.85 -128.35,-28.45 -121.1,-32.45 -113.75,-35.85 -106.45,-38.75 -99.4,-41.2 -92.7,-43.25 -86.4,-44.95 -80.4,-46.45 -74.8,-47.65 -69.6,-48.7 -64.65,-49.65 -60.05,-50.4 -55.75,-51.05 -51.65,-51.65 -47.75,-52.15 -44.1,-52.55 -40.65,-52.95 -37.3,-53.25 -34.1,-53.55 -31.05,-53.8 -28.1,-54 -25.3,-54.2 -22.5,-54.4 -19.85,-54.5 -17.25,-54.65 -14.65,-54.75 -12.15,-54.8 -9.7,-54.9 -7.25,-54.95 -4.8,-54.95 -2.4,-55 0,-55 2.4,-55 4.8,-54.95 7.25,-54.95 9.7,-54.9 12.15,-54.8 14.65,-54.75 17.25,-54.65 19.85,-54.5 22.5,-54.4 25.3,-54.2 28.1,-54 31.05,-53.8 34.1,-53.55 37.3,-53.25 40.65,-52.95 44.1,-52.55 47.75,-52.15 51.65,-51.65 55.75,-51.05 60.05,-50.4 64.65,-49.65 69.6,-48.7 74.8,-47.65 80.4,-46.45 86.4,-44.95 92.7,-43.25 99.4,-41.2 106.45,-38.75 113.75,-35.85 121.1,-32.45 128.35,-28.45 135.2,-23.85 141.2,-18.6 145.9,-12.75 148.95,-6.5 150,0"/>
<polygon id="000001EFFF68A370" class="l1d0" points="-12.5,-200 -30,-30 -30,30 -12.5,200 12.5,200 30,30 30,-30 12.5,-200"/>
<polygon id="000001EFFF68A680" class="l2d0" points="0,150 -6.5,148.95 -12.75,145.9 -18.6,141.2 -23.85,135.2 -28.45,128.35 -32.45,121.1 -35.85,113.75 -38.75,106.45 -41.2,99.4 -43.25,92.7 -44.95,86.4 -46.45,80.4 -47.65,74.8 -48.7,69.6 -49.65,64.65 -50.4,60.05 -51.05,55.75 -51.65,51.65 -52.15,47.75 -52.55,44.1 -52.95,40.65 -53.25,37.3 -53.55,34.1 -53.8,31.05 -54,28.1 -54.2,25.3 -54.4,22.5 -54.5,19.85 -54.65,17.25 -54.75,14.65 -54.8,12.15 -54.9,9.7 -54.95,7.25 -54.95,4.8 -55,2.4 -55,0 -55,-2.4 -54.95,-4.8 -54.95,-7.25 -54.9,-9.7 -54.8,-12.15 -54.75,-14.65 -54.65,-17.25 -54.5,-19.85 -54.4,-22.5 -54.2,-25.3 -54,-28.1 -53.8,-31.05 -53.55,-34.1 -53.25,-37.3 -52.95,-40.65 -52.55,-44.1 -52.15,-47.75 -51.65,-51.65 -51.05,-55.75 -50.4,-60.05 -49.65,-64.65 -48.7,-69.6 -47.65,-74.8 -46.45,-80.4 -44.95,-86.4 -43.25,-92.7 -41.2,-99.4 -38.75,-106.45 -35.85,-113.75 -32.45,-121.1 -28.45,-128.35 -23.85,-135.2 -18.6,-141.2 -12.75,-145.9 -6.5,-148.95 0,-150 6.5,-148.95 12.75,-145.9 18.6,-141.2 23.85,-135.2 28.45,-128.35 32.45,-121.1 35.85,-113.75 38.75,-106.45 41.2,-99.4 43.25,-92.7 44.95,-86.4 46.45,-80.4 47.65,-74.8 48.7,-69.6 49.65,-64.65 50.4,-60.05 51.05,-55.75 51.65,-51.65 52.15,-47.75 52.55,-44.1 52.95,-40.65 53.25,-37.3 53.55,-34.1 53.8,-31.05 54,-28.1 54.2,-25.3 54.4,-22.5 54.5,-19.85 54.65,-17.25 54.75,-14.65 54.8,-12.15 54.9,-9.7 54.95,-7.25 54.95,-4.8 55,-2.4 55,0 55,2.4 54.95,4.8 54.95,7.25 54.9,9.7 54.8,12.15 54.75,14.65 54.65,17.25 54.5,19.85 54.4,22.5 54.2,25.3 54,28.1 53.8,31.05 53.55,34.1 53.25,37.3 52.95,40.65 52.55,44.1 52.15,47.75 51.65,51.65 51.05,55.75 50.4,60.05 49.65,64.65 48.7,69.6 47.65,74.8 46.45,80.4 44.95,86.4 43.25,92.7 41.2,99.4 38.75,106.45 35.85,113.75 32.45,121.1 28.45,128.35 23.85,135.2 18.6,141.2 12.75,145.9 6.5,148.95 0,150"/>
</g>
</svg>